<?xml version="1.0" ?><!DOCTYPE svg  PUBLIC '-//W3C//DTD SVG 1.1 Tiny//EN'  'http://www.w3.org/Graphics/SVG/1.1/DTD/svg11-tiny.dtd'><svg baseProfile="tiny" height="128px" id="Layer_1" version="1.1" viewBox="0 0 128 128" width="128px" xml:space="preserve" xmlns="http://www.w3.org/2000/svg" xmlns:xlink="http://www.w3.org/1999/xlink"><g><path d="M64.2,100.2L64.2,100.2c-1.7,0-3-1.3-3-3V30.3c0-1.6,1.3-3,3-3h0.1c1.6,0,3,1.3,3,3v66.9   C67.1,98.9,65.8,100.2,64.2,100.2" fill="#C45527"/><path d="M70.5,51h-15c-4.1,0-7.5-3.4-7.5-7.5v-0.2c0-4.1,3.4-7.5,7.5-7.5h15c4.1,0,7.5,3.4,7.5,7.5v0.2   C78,47.7,74.6,51,70.5,51" fill="#7ACCCE"/><path d="M103.3,100.6H24.7c-0.8,0-1.5-0.7-1.5-1.5v-1.4c0-0.8,0.7-1.5,1.5-1.5h78.6c0.8,0,1.5,0.7,1.5,1.5v1.4   C104.8,100,104.1,100.6,103.3,100.6" fill="#C45527"/><path d="M90.1,96.4H35.9c-4.1,0-7.5-3.4-7.5-7.5v-0.1c0-4.1,3.4-7.5,7.5-7.5h54.2c4.1,0,7.5,3.4,7.5,7.5v0.1   C97.6,93,94.2,96.4,90.1,96.4" fill="#F7B2B8"/><path d="M81.8,81.3H44.2c-4.1,0-7.5-3.4-7.5-7.5v-0.1c0-4.1,3.4-7.5,7.5-7.5h37.6c4.1,0,7.5,3.4,7.5,7.5v0.1   C89.3,77.9,85.9,81.3,81.8,81.3" fill="#F3D04C"/><path d="M75.4,66.2H50.5c-4.1,0-7.5-3.4-7.5-7.5v-0.2c0-4.1,3.4-7.5,7.5-7.5h24.9c4.1,0,7.5,3.4,7.5,7.5v0.2   C82.9,62.8,79.5,66.2,75.4,66.2" fill="#F48053"/><path d="M54.8,47.8c0-0.3-0.1-0.7-0.4-0.9c-0.8-0.9-1.3-2-1.3-3.3v-0.1c0-1.3,0.5-2.4,1.3-3.3   c0.2-0.3,0.4-0.6,0.4-0.9v0c0-1.3-1.6-1.9-2.4-0.9c-1.3,1.4-2,3.2-2,5.2v0.1c0,2,0.8,3.8,2,5.2C53.2,49.7,54.8,49.1,54.8,47.8   L54.8,47.8z" fill="#AAD6D6"/><path d="M50.3,62.8c0-0.3-0.1-0.7-0.4-0.9c-0.8-0.9-1.3-2.1-1.3-3.3v-0.1c0-1.3,0.5-2.4,1.3-3.3   c0.2-0.3,0.4-0.6,0.4-0.9v0c0-1.3-1.6-1.9-2.4-0.9c-1.3,1.4-2,3.2-2,5.2v0.1c0,2,0.8,3.8,2,5.2C48.7,64.7,50.3,64.1,50.3,62.8   L50.3,62.8z" fill="#F58D63"/><path d="M44.2,77.9c0-0.3-0.1-0.7-0.4-0.9c-0.8-0.9-1.3-2.1-1.3-3.3v-0.1c0-1.3,0.5-2.5,1.3-3.3   c0.2-0.3,0.4-0.6,0.4-0.9v0c0-1.3-1.6-1.9-2.4-0.9c-1.3,1.4-2,3.2-2,5.2v0.1c0,2,0.8,3.8,2,5.2C42.6,79.8,44.2,79.2,44.2,77.9   L44.2,77.9z" fill="#F5D779"/><path d="M35.7,93.2c0-0.3-0.1-0.7-0.3-0.9c-0.8-0.9-1.3-2-1.3-3.2V89c0-1.2,0.5-2.4,1.3-3.2   c0.2-0.3,0.3-0.6,0.3-0.9v0c0-1.2-1.5-1.8-2.4-0.9c-1.2,1.3-2,3.1-2,5.1v0.1c0,2,0.7,3.7,2,5.1C34.1,95.1,35.7,94.5,35.7,93.2   L35.7,93.2z" fill="#F9C7C9"/><path d="M103.3,96.2H91.7c-0.5,0.1-1.1,0.2-1.7,0.2H67.1v0.8c0,1.6-1.3,3-3,3h-0.1c-0.1,0-0.1,0-0.2,0v0.4h39.4   c0.8,0,1.5-0.7,1.5-1.5v-1.4C104.8,96.9,104.1,96.2,103.3,96.2" fill="#B84E2A"/><path d="M64.2,27.4L64.2,27.4c-0.1,0-0.2,0-0.2,0v8.5h3.2v-5.5C67.1,28.7,65.8,27.4,64.2,27.4 M67.1,96.4h-3.2v3.8   c0.1,0,0.1,0,0.2,0h0.1c1.6,0,3-1.3,3-3V96.4z" fill="#B84E2A"/><path d="M90.1,81.2h-7.5c-0.2,0-0.5,0-0.7,0H63.9v15.1h26.1c0.6,0,1.1-0.1,1.7-0.2c3.3-0.8,5.8-3.7,5.8-7.3v-0.1   C97.6,84.6,94.2,81.2,90.1,81.2" fill="#F496A7"/><path d="M81.8,66.1h-5.6c-0.2,0-0.5,0-0.7,0H63.9v15.1h17.8c0.2,0,0.5,0,0.7,0c3.8-0.4,6.8-3.6,6.8-7.5v-0.1   C89.3,69.5,85.9,66.1,81.8,66.1" fill="#DFB747"/><path d="M75.4,51h-4.2c-0.2,0-0.5,0-0.7,0h-6.6v15.1h11.5c0.2,0,0.5,0,0.7,0c3.8-0.4,6.8-3.6,6.8-7.5v-0.2   C82.9,54.4,79.5,51,75.4,51" fill="#E27650"/><path d="M70.5,35.9h-6.6V51h6.6c0.2,0,0.5,0,0.7,0c3.8-0.4,6.8-3.6,6.8-7.5v-0.2C78,39.3,74.6,35.9,70.5,35.9" fill="#71B8BC"/></g></svg>